<mxfile host="app.diagrams.net" modified="2024-05-20T04:09:40.295Z" agent="Mozilla/5.0 (Windows NT 10.0; Win64; x64) AppleWebKit/537.36 (KHTML, like Gecko) Chrome/109.0.0.0 Safari/537.36 SLBrowser/9.0.3.1311 SLBChan/33" etag="Vq3luYmC2_4mJXynMtgb" version="24.4.4" type="github">
  <diagram name="第 1 页" id="43BCBT2eY13ct0n4OTBR">
    <mxGraphModel dx="1221" dy="620" grid="1" gridSize="10" guides="1" tooltips="1" connect="1" arrows="1" fold="1" page="1" pageScale="1" pageWidth="827" pageHeight="1169" math="0" shadow="0">
      <root>
        <mxCell id="0" />
        <mxCell id="1" parent="0" />
        <mxCell id="frmlQv1XT1RPGKJ8r1EA-10" value="" style="edgeStyle=orthogonalEdgeStyle;rounded=0;orthogonalLoop=1;jettySize=auto;html=1;" edge="1" parent="1" source="frmlQv1XT1RPGKJ8r1EA-1" target="frmlQv1XT1RPGKJ8r1EA-2">
          <mxGeometry relative="1" as="geometry" />
        </mxCell>
        <mxCell id="frmlQv1XT1RPGKJ8r1EA-1" value="1" style="ellipse;whiteSpace=wrap;html=1;aspect=fixed;" vertex="1" parent="1">
          <mxGeometry x="530" y="80" width="60" height="60" as="geometry" />
        </mxCell>
        <mxCell id="frmlQv1XT1RPGKJ8r1EA-2" value="2" style="ellipse;whiteSpace=wrap;html=1;aspect=fixed;" vertex="1" parent="1">
          <mxGeometry x="530" y="180" width="60" height="60" as="geometry" />
        </mxCell>
        <mxCell id="frmlQv1XT1RPGKJ8r1EA-3" value="4" style="ellipse;whiteSpace=wrap;html=1;aspect=fixed;direction=south;" vertex="1" parent="1">
          <mxGeometry x="440" y="260" width="60" height="60" as="geometry" />
        </mxCell>
        <mxCell id="frmlQv1XT1RPGKJ8r1EA-4" value="5" style="ellipse;whiteSpace=wrap;html=1;aspect=fixed;" vertex="1" parent="1">
          <mxGeometry x="414" y="370" width="60" height="60" as="geometry" />
        </mxCell>
        <mxCell id="frmlQv1XT1RPGKJ8r1EA-6" value="7" style="ellipse;whiteSpace=wrap;html=1;aspect=fixed;" vertex="1" parent="1">
          <mxGeometry x="360" y="460" width="60" height="60" as="geometry" />
        </mxCell>
        <mxCell id="frmlQv1XT1RPGKJ8r1EA-7" value="6" style="ellipse;whiteSpace=wrap;html=1;aspect=fixed;" vertex="1" parent="1">
          <mxGeometry x="520" y="430" width="60" height="60" as="geometry" />
        </mxCell>
        <mxCell id="frmlQv1XT1RPGKJ8r1EA-8" value="8" style="ellipse;whiteSpace=wrap;html=1;aspect=fixed;" vertex="1" parent="1">
          <mxGeometry x="430" y="550" width="60" height="60" as="geometry" />
        </mxCell>
        <mxCell id="frmlQv1XT1RPGKJ8r1EA-14" value="3" style="ellipse;whiteSpace=wrap;html=1;aspect=fixed;" vertex="1" parent="1">
          <mxGeometry x="640" y="300" width="60" height="60" as="geometry" />
        </mxCell>
        <mxCell id="frmlQv1XT1RPGKJ8r1EA-16" value="" style="endArrow=classic;html=1;rounded=0;exitX=1.017;exitY=0.806;exitDx=0;exitDy=0;exitPerimeter=0;entryX=0;entryY=0;entryDx=0;entryDy=0;" edge="1" parent="1" source="frmlQv1XT1RPGKJ8r1EA-2" target="frmlQv1XT1RPGKJ8r1EA-14">
          <mxGeometry width="50" height="50" relative="1" as="geometry">
            <mxPoint x="620" y="240" as="sourcePoint" />
            <mxPoint x="670" y="190" as="targetPoint" />
          </mxGeometry>
        </mxCell>
        <mxCell id="frmlQv1XT1RPGKJ8r1EA-19" value="" style="endArrow=classic;html=1;rounded=0;exitX=1;exitY=1;exitDx=0;exitDy=0;entryX=0;entryY=0.5;entryDx=0;entryDy=0;" edge="1" parent="1" source="frmlQv1XT1RPGKJ8r1EA-4" target="frmlQv1XT1RPGKJ8r1EA-7">
          <mxGeometry width="50" height="50" relative="1" as="geometry">
            <mxPoint x="650" y="420" as="sourcePoint" />
            <mxPoint x="700" y="370" as="targetPoint" />
          </mxGeometry>
        </mxCell>
        <mxCell id="frmlQv1XT1RPGKJ8r1EA-20" value="" style="endArrow=classic;html=1;rounded=0;exitX=0.5;exitY=1;exitDx=0;exitDy=0;entryX=0;entryY=0.5;entryDx=0;entryDy=0;" edge="1" parent="1" source="frmlQv1XT1RPGKJ8r1EA-6" target="frmlQv1XT1RPGKJ8r1EA-8">
          <mxGeometry width="50" height="50" relative="1" as="geometry">
            <mxPoint x="550" y="580" as="sourcePoint" />
            <mxPoint x="560" y="560" as="targetPoint" />
          </mxGeometry>
        </mxCell>
        <mxCell id="frmlQv1XT1RPGKJ8r1EA-21" value="" style="endArrow=classic;html=1;rounded=0;exitX=0;exitY=1;exitDx=0;exitDy=0;" edge="1" parent="1" source="frmlQv1XT1RPGKJ8r1EA-2" target="frmlQv1XT1RPGKJ8r1EA-3">
          <mxGeometry width="50" height="50" relative="1" as="geometry">
            <mxPoint x="610" y="340" as="sourcePoint" />
            <mxPoint x="660" y="290" as="targetPoint" />
          </mxGeometry>
        </mxCell>
        <mxCell id="frmlQv1XT1RPGKJ8r1EA-22" value="" style="endArrow=classic;html=1;rounded=0;exitX=0.994;exitY=0.672;exitDx=0;exitDy=0;exitPerimeter=0;entryX=0.5;entryY=0;entryDx=0;entryDy=0;" edge="1" parent="1" source="frmlQv1XT1RPGKJ8r1EA-3" target="frmlQv1XT1RPGKJ8r1EA-4">
          <mxGeometry width="50" height="50" relative="1" as="geometry">
            <mxPoint x="600" y="400" as="sourcePoint" />
            <mxPoint x="650" y="350" as="targetPoint" />
          </mxGeometry>
        </mxCell>
        <mxCell id="frmlQv1XT1RPGKJ8r1EA-23" value="" style="endArrow=classic;html=1;rounded=0;exitX=0.5;exitY=1;exitDx=0;exitDy=0;entryX=0.5;entryY=0;entryDx=0;entryDy=0;" edge="1" parent="1" source="frmlQv1XT1RPGKJ8r1EA-4" target="frmlQv1XT1RPGKJ8r1EA-6">
          <mxGeometry width="50" height="50" relative="1" as="geometry">
            <mxPoint x="510" y="500" as="sourcePoint" />
            <mxPoint x="560" y="450" as="targetPoint" />
          </mxGeometry>
        </mxCell>
        <mxCell id="frmlQv1XT1RPGKJ8r1EA-24" value="9" style="ellipse;whiteSpace=wrap;html=1;aspect=fixed;" vertex="1" parent="1">
          <mxGeometry x="270" y="555" width="60" height="60" as="geometry" />
        </mxCell>
        <mxCell id="frmlQv1XT1RPGKJ8r1EA-25" value="" style="endArrow=classic;html=1;rounded=0;exitX=0.32;exitY=0.983;exitDx=0;exitDy=0;exitPerimeter=0;entryX=1;entryY=0;entryDx=0;entryDy=0;" edge="1" parent="1" source="frmlQv1XT1RPGKJ8r1EA-6" target="frmlQv1XT1RPGKJ8r1EA-24">
          <mxGeometry width="50" height="50" relative="1" as="geometry">
            <mxPoint x="340" y="510" as="sourcePoint" />
            <mxPoint x="390" y="460" as="targetPoint" />
          </mxGeometry>
        </mxCell>
      </root>
    </mxGraphModel>
  </diagram>
</mxfile>
